<svg id="Layer_1" data-name="Layer 1" xmlns="http://www.w3.org/2000/svg" width="133.66" height="168.01" viewBox="0 0 133.66 168.01"><defs><style>.cls-1{fill:#33aaad;}.cls-2{fill:#fff;}</style></defs><g id="Mask_Group_1" data-name="Mask Group 1"><g id="Group_9" data-name="Group 9"><g id="Group_8" data-name="Group 8"><g id="Path_13" data-name="Path 13"><path class="cls-1" d="M123.33,166h-113c-4,0-8.33-4.28-8.33-8.33V10.83C2,6.79,6.79,2,10.83,2h80.8l.58.56,38.84,37.65.61.59V157.68C131.66,161.73,127.38,166,123.33,166Z"/><path class="cls-2" d="M10.83,4C7.9,4,4,7.9,4,10.83V157.68c0,2.94,3.39,6.33,6.33,6.33h113c2.94,0,6.33-3.39,6.33-6.33v-116L90.82,4h-80m0-4h80A4,4,0,0,1,93.6,1.13l38.85,37.64a4,4,0,0,1,1.21,2.88v116A11.14,11.14,0,0,1,123.33,168h-113a10.33,10.33,0,0,1-7.1-3.24A10.32,10.32,0,0,1,0,157.68V10.83A10.8,10.8,0,0,1,3.49,3.49,10.8,10.8,0,0,1,10.83,0Z"/></g><path id="Path_14" data-name="Path 14" class="cls-2" d="M87.88,7.82H14.18A6.08,6.08,0,0,0,8.1,13.9h0V154a6.08,6.08,0,0,0,6.08,6.08h105.2a6.09,6.09,0,0,0,6.09-6.08h0V44.24H103.84c-10.38,0-16.07-5.55-16.07-16.18C87.77,16.29,87.88,7.82,87.88,7.82Z"/></g></g></g><g id="Group_27" data-name="Group 27"><path id="Path_34" data-name="Path 34" class="cls-1" d="M73.36,98.51l-2.19-.75a19.87,19.87,0,0,0-.24-3.93l2.07-1a4.7,4.7,0,1,0-4.12-8.45l-2.07,1a18.26,18.26,0,0,0-3-2.61l.71-2.08a4.7,4.7,0,0,0-8.85-3.19s0,.08,0,.13l-.75,2.19a17.24,17.24,0,0,0-3.93.24L50,78a4.72,4.72,0,0,0-6.29-2.17A4.65,4.65,0,0,0,41.47,82h0l.06.11,1,2.07a20.41,20.41,0,0,0-2.61,3l-2.19-.76a4.71,4.71,0,0,0-3.06,8.9l2.19.75a19,19,0,0,0,.21,4L35,101a4.64,4.64,0,0,0-2.22,6.18h0l.06.11a4.84,4.84,0,0,0,2.69,2.38,5,5,0,0,0,3.6-.22l2.07-1a17,17,0,0,0,2.95,2.61l-.74,2.13a4.71,4.71,0,0,0,8.86,3.2s0-.09,0-.13l.74-2.14A18.5,18.5,0,0,0,57,113.9L58,116a4.7,4.7,0,0,0,8.45-4.13l-1-2.07a18.86,18.86,0,0,0,2.63-3l2.19.76a4.71,4.71,0,0,0,3.06-8.9h0Zm-21.88,5.74a7.84,7.84,0,1,1,10-4.86h0l0,.12a7.85,7.85,0,0,1-9.93,4.74Z"/><path id="Path_35" data-name="Path 35" class="cls-1" d="M93.77,69.14,92.22,69a14.22,14.22,0,0,0-.75-2.54l1.21-1a3.16,3.16,0,0,0-4-4.91l-1.21,1a12.82,12.82,0,0,0-2.33-1.27l.16-1.47A3.17,3.17,0,1,0,79,58a.41.41,0,0,1,0,.11l-.16,1.55a11.77,11.77,0,0,0-2.54.75l-1-1.21a3.18,3.18,0,0,0-4.45-.47,3.13,3.13,0,0,0-.52,4.39h0l0,.06,1,1.21a13.47,13.47,0,0,0-1.26,2.33l-1.56-.16a3.16,3.16,0,0,0-.66,6.29h0l1.55.16a12.82,12.82,0,0,0,.75,2.59l-1.21,1A3.11,3.11,0,0,0,68.49,81h0l.05.07a3.21,3.21,0,0,0,2.13,1.15A3.3,3.3,0,0,0,73,81.5l1.21-1a11.14,11.14,0,0,0,2.33,1.26l-.16,1.51a3.16,3.16,0,1,0,6.28.77s0-.07,0-.11l.16-1.51a12.55,12.55,0,0,0,2.54-.75l1,1.21a3.16,3.16,0,0,0,4.92-4h0l-1-1.21a13.16,13.16,0,0,0,1.27-2.37l1.55.16a3.16,3.16,0,1,0,.66-6.29ZM80.3,76.2a5.27,5.27,0,1,1,5.8-4.69v.09a5.28,5.28,0,0,1-5.79,4.6Z"/></g></svg>