<svg id="Layer_1" data-name="Layer 1" xmlns="http://www.w3.org/2000/svg" width="133.69" height="168.04" viewBox="0 0 133.69 168.04"><defs><style>.cls-1{fill:#33aaad;}.cls-2{fill:#fff;}</style></defs><g id="Mask_Group_4" data-name="Mask Group 4"><g id="Group_18" data-name="Group 18"><g id="Group_17" data-name="Group 17"><g id="Path_19" data-name="Path 19"><path class="cls-1" d="M123.36,166h-113c-4,0-8.33-4.28-8.33-8.33V10.84C2,6.79,6.79,2,10.84,2H91.65l.58.56,38.85,37.66.61.59v116.9C131.69,161.76,127.41,166,123.36,166Z"/><path class="cls-2" d="M10.84,4C7.9,4,4,7.9,4,10.84V157.71c0,2.94,3.39,6.33,6.33,6.33h113c2.94,0,6.33-3.39,6.33-6.33v-116L90.84,4h-80m0-4h80a4,4,0,0,1,2.78,1.13l38.85,37.65a4,4,0,0,1,1.22,2.88V157.71A11.12,11.12,0,0,1,123.36,168h-113a10.32,10.32,0,0,1-7.09-3.23A10.31,10.31,0,0,1,0,157.71V10.84A10.8,10.8,0,0,1,3.49,3.49,10.8,10.8,0,0,1,10.84,0Z"/></g><path id="Path_20" data-name="Path 20" class="cls-2" d="M87.9,7.82H14.19A6.08,6.08,0,0,0,8.11,13.9h0V154.05a6.08,6.08,0,0,0,6.08,6.08H119.42a6.08,6.08,0,0,0,6.08-6.08V44.25H103.87c-10.39,0-16.09-5.55-16.09-16.19C87.78,16.29,87.9,7.82,87.9,7.82Z"/></g></g></g><g id="Group_30" data-name="Group 30"><path id="Path_39" data-name="Path 39" class="cls-1" d="M101.51,59.53H33a2,2,0,0,0-2,2v52.73a2,2,0,0,0,2,2h68.55a2,2,0,0,0,2-2V61.51A2,2,0,0,0,101.51,59.53Zm-2,52.73H34.94V63.48h64.6Z"/><path id="Path_40" data-name="Path 40" class="cls-1" d="M44.75,70.82a1.79,1.79,0,0,0,.63.42,2,2,0,0,0,2.74-1.82,1.9,1.9,0,0,0-.16-.77,2,2,0,0,0-3.64,0,1.94,1.94,0,0,0,0,1.53A1.85,1.85,0,0,0,44.75,70.82Z"/><path id="Path_41" data-name="Path 41" class="cls-1" d="M39.48,70.82a1.95,1.95,0,0,0,2.16.42,1.7,1.7,0,0,0,.63-.42,1.91,1.91,0,0,0,.58-1.4,1.83,1.83,0,0,0-.15-.77,2,2,0,0,0-2.6-1,2,2,0,0,0-1,1,1.94,1.94,0,0,0,0,1.53A1.7,1.7,0,0,0,39.48,70.82Z"/><path id="Path_42" data-name="Path 42" class="cls-1" d="M54.06,71.39H93.6a2,2,0,1,0,0-4H54.06a2,2,0,1,0,0,4Z"/><path id="Path_43" data-name="Path 43" class="cls-1" d="M41.53,82.6v21.09a2,2,0,0,0,2,2H67.24a2,2,0,0,0,2-2V82.6a2,2,0,0,0-2-2H43.51A2,2,0,0,0,41.53,82.6Zm3.95,2H65.26v17.14H45.48Z"/><path id="Path_44" data-name="Path 44" class="cls-1" d="M91,83.26H74.36a2,2,0,1,0,0,3.95H91a2,2,0,1,0,0-3.95Z"/><path id="Path_45" data-name="Path 45" class="cls-1" d="M91,91.17H74.36a2,2,0,1,0,0,4H91a2,2,0,1,0,0-4Z"/><path id="Path_46" data-name="Path 46" class="cls-1" d="M83.85,99.08H74.36a2,2,0,1,0,0,4h9.49a2,2,0,0,0,0-4Z"/></g></svg>