<svg id="Layer_1" data-name="Layer 1" xmlns="http://www.w3.org/2000/svg" width="133.67" height="168.02" viewBox="0 0 133.67 168.02"><defs><style>.cls-1{fill:#33aaad;}.cls-2{fill:#fff;}.cls-3{fill:none;stroke:#fff;stroke-linecap:round;stroke-linejoin:round;stroke-width:5px;}</style></defs><g id="Mask_Group_6" data-name="Mask Group 6"><g id="Group_24" data-name="Group 24"><g id="Group_23" data-name="Group 23"><g id="Path_23" data-name="Path 23"><path class="cls-1" d="M123.34,166h-113c-4,0-8.33-4.28-8.33-8.33V10.83C2,6.79,6.79,2,10.83,2h80.8l.58.56,38.85,37.65.61.59V157.69C131.67,161.74,127.39,166,123.34,166Z"/><path class="cls-2" d="M10.83,4C7.9,4,4,7.9,4,10.83V157.69c0,2.93,3.39,6.33,6.33,6.33h113c2.94,0,6.33-3.4,6.33-6.33v-116L90.82,4h-80m0-4h80A4,4,0,0,1,93.6,1.13l38.85,37.65a4,4,0,0,1,1.22,2.87v116A11.14,11.14,0,0,1,123.34,168h-113a10.33,10.33,0,0,1-7.1-3.24A10.32,10.32,0,0,1,0,157.69V10.83A10.8,10.8,0,0,1,3.49,3.49,10.8,10.8,0,0,1,10.83,0Z"/></g><path id="Path_24" data-name="Path 24" class="cls-2" d="M87.89,7.82H14.18A6.08,6.08,0,0,0,8.1,13.9h0V154a6.08,6.08,0,0,0,6.08,6.08H119.4a6.08,6.08,0,0,0,6.08-6.08V44.25H103.85c-10.38,0-16.08-5.55-16.08-16.19C87.77,16.29,87.89,7.82,87.89,7.82Z"/></g></g></g><g id="Group_33" data-name="Group 33"><circle id="Ellipse_1" data-name="Ellipse 1" class="cls-1" cx="66.98" cy="88.61" r="31.5"/><path id="Path_51" data-name="Path 51" class="cls-3" d="M53.22,103.13,60,88.3l7.1-15.65,12.7,30.48L60,88.3"/></g></svg>
