<svg id="Layer_1" data-name="Layer 1" xmlns="http://www.w3.org/2000/svg" width="133.73" height="168.09" viewBox="0 0 133.73 168.09"><defs><style>.cls-1{fill:#33aaad;}.cls-2{fill:#fff;}</style></defs><g id="Mask_Group_2" data-name="Mask Group 2"><g id="Group_12" data-name="Group 12"><g id="Group_11" data-name="Group 11"><g id="Path_15" data-name="Path 15"><path class="cls-1" d="M123.4,166.09H10.33c-4,0-8.33-4.28-8.33-8.33V10.84C2,6.79,6.79,2,10.84,2H91.67l.59.56,38.86,37.67.61.59V157.76C131.73,161.81,127.45,166.09,123.4,166.09Z"/><path class="cls-2" d="M10.84,4C7.9,4,4,7.9,4,10.84V157.76c0,2.94,3.39,6.33,6.33,6.33H123.4c2.94,0,6.33-3.39,6.33-6.33V41.67L90.86,4h-80m0-4h80a4,4,0,0,1,2.79,1.13L132.51,38.8a4,4,0,0,1,1.22,2.87V157.76a11.12,11.12,0,0,1-10.33,10.33H10.33a10.32,10.32,0,0,1-7.09-3.23A10.31,10.31,0,0,1,0,157.76V10.84A10.82,10.82,0,0,1,3.49,3.49,10.82,10.82,0,0,1,10.84,0Z"/></g><path id="Path_16" data-name="Path 16" class="cls-2" d="M87.93,7.82H14.19A6.08,6.08,0,0,0,8.11,13.9h0V154.09a6.09,6.09,0,0,0,6.08,6.09H119.45a6.09,6.09,0,0,0,6.09-6.09V44.27H103.9c-10.39,0-16.09-5.56-16.09-16.2C87.81,16.29,87.93,7.82,87.93,7.82Z"/></g></g></g><g id="Group_28" data-name="Group 28"><path id="Path_36" data-name="Path 36" class="cls-1" d="M89.29,63.77A32.94,32.94,0,1,0,99,87.08,32.93,32.93,0,0,0,89.29,63.77ZM36.86,87.08a29,29,0,0,1,.46-5,29.08,29.08,0,0,1,40.12.24,1.94,1.94,0,0,0,2.7-2.79h0A33,33,0,0,0,41.9,74.08c-.93.49-1.84,1-2.72,1.6a29.11,29.11,0,0,1,32.6-17.12c-.8.34-1.59.68-2.37,1.09a33,33,0,0,0-6,4.05,1.94,1.94,0,0,0,2.51,3A28.54,28.54,0,0,1,78,60.59a29.11,29.11,0,0,1,8.57,5.91c.09.58.19,1.16.25,1.75a29.15,29.15,0,0,1-47.66,25c-.65-.55-1.27-1.13-1.88-1.74A28.47,28.47,0,0,1,36.86,87.08ZM89.31,95.5a1.94,1.94,0,1,0-3.77.92,28.92,28.92,0,0,1,.4,11.79,29.09,29.09,0,0,1-13.27,7.18A29.21,29.21,0,0,1,63,108.23a1.95,1.95,0,0,0-3,2.52l.07.07a32.67,32.67,0,0,0,6.18,5.37H66A29.11,29.11,0,0,1,39,98a33.14,33.14,0,0,0,13.85,5.48,32.56,32.56,0,0,0,12.78-.58,33,33,0,0,0,25.1-31.07,28.9,28.9,0,0,1-.52,31.28A32.78,32.78,0,0,0,89.31,95.5Z"/><path id="Path_37" data-name="Path 37" class="cls-1" d="M52.83,95.36a1.91,1.91,0,0,0,1.25.46h.16a.3.3,0,0,0,.16,0A1.94,1.94,0,0,0,56,93.58h0a28.64,28.64,0,0,1-.32-6.41,29.11,29.11,0,0,1,1.09-6.35,1.95,1.95,0,0,0-3.71-1.17l0,.08a33.34,33.34,0,0,0-.87,14.46A1.91,1.91,0,0,0,52.83,95.36Z"/></g></svg>
