<svg id="Layer_1" data-name="Layer 1" xmlns="http://www.w3.org/2000/svg" width="133.89" height="168.3" viewBox="0 0 133.89 168.3"><defs><style>.cls-1{fill:#e00;}.cls-2{fill:#fff;}</style></defs><g id="Mask_Group_3" data-name="Mask Group 3"><g id="Group_15" data-name="Group 15"><g id="Group_14" data-name="Group 14"><g id="Path_17" data-name="Path 17"><path class="cls-1" d="M123.55,166.3H10.34C6.29,166.3,2,162,2,158V10.85C2,6.8,6.8,2,10.85,2H91.78l.59.56,38.91,37.72.61.59V158C131.89,162,127.61,166.3,123.55,166.3Z"/><path class="cls-2" d="M10.85,4C7.91,4,4,7.91,4,10.85V158c0,2.94,3.4,6.34,6.34,6.34H123.55c2.94,0,6.34-3.4,6.34-6.34V41.72L91,4H10.85m0-4H91a4,4,0,0,1,2.79,1.13l38.92,37.71a4,4,0,0,1,1.21,2.88V158a11.16,11.16,0,0,1-10.34,10.34H10.34a10.31,10.31,0,0,1-7.1-3.24A10.31,10.31,0,0,1,0,158V10.85A10.84,10.84,0,0,1,3.49,3.49,10.84,10.84,0,0,1,10.85,0Z"/></g><path id="Path_18" data-name="Path 18" class="cls-2" d="M88,7.83H14.21a6.09,6.09,0,0,0-6.1,6.09h0V154.28a6.1,6.1,0,0,0,6.1,6.1H119.6a6.1,6.1,0,0,0,6.09-6.1v-110H104c-10.4,0-16.1-5.56-16.1-16.22C87.92,16.31,88,7.83,88,7.83Z"/></g></g></g><g id="Group_26" data-name="Group 26"><path id="Path_29" data-name="Path 29" class="cls-1" d="M59.64,45.25H41a2.36,2.36,0,0,0-2.32,2.39h0V66.27A2.32,2.32,0,0,0,41,68.59H59.64A2.33,2.33,0,0,0,62,66.27h0V47.64a2.37,2.37,0,0,0-2.33-2.39ZM57.31,63.88h-14v-14h14Z"/><path id="Path_30" data-name="Path 30" class="cls-1" d="M59.64,73.19H41a2.35,2.35,0,0,0-2.32,2.32V94.14A2.34,2.34,0,0,0,41,96.47H59.64A2.34,2.34,0,0,0,62,94.14V75.58a2.36,2.36,0,0,0-2.33-2.39ZM57.31,91.81h-14v-14h14Z"/><rect id="Rectangle_22" data-name="Rectangle 22" class="cls-1" x="38.69" y="101.12" width="23.28" height="23.28" rx="2.09"/><path id="Path_31" data-name="Path 31" class="cls-1" d="M84.47,101.19a2.35,2.35,0,0,0-2.33,2.35,6.9,6.9,0,0,1-6.88,6.9h-.78l2.23-2.24a2.33,2.33,0,0,0-3.29-3.29l-6.21,6.21a2.55,2.55,0,0,0-.46.71.81.81,0,0,0,0,.22,1.94,1.94,0,0,0,0,.59v.22a1.84,1.84,0,0,0,0,.74h0a1.79,1.79,0,0,0,.43.68h0l6.21,6.21a2.33,2.33,0,0,0,3.29-3.29L74.45,115h.71A11.59,11.59,0,0,0,86.8,103.51h0a2.28,2.28,0,0,0-2.26-2.32Z"/><path id="Path_32" data-name="Path 32" class="cls-1" d="M69,59.22h6.2a6.92,6.92,0,0,1,7,6.86v.19a2.3,2.3,0,0,0,2.3,2.3h0a2.36,2.36,0,0,0,2.33-2.36A11.57,11.57,0,0,0,75.28,54.57H69a2.33,2.33,0,1,0,0,4.65Z"/><path id="Path_33" data-name="Path 33" class="cls-1" d="M93.78,82.5H92.63a10.48,10.48,0,0,0-.74-1.8l.81-.81a2.33,2.33,0,0,0-3.29-3.29l-.81.81a9.77,9.77,0,0,0-1.8-.75V75.58a2.33,2.33,0,1,0-4.66,0v1.14a8.35,8.35,0,0,0-1.8.75l-.81-.81a2.33,2.33,0,0,0-3.33,3.25l0,0,.81.81a8.85,8.85,0,0,0-.74,1.8H75.16a2.33,2.33,0,1,0,0,4.65h1.15A9.11,9.11,0,0,0,77.05,89l-.81.81a2.31,2.31,0,0,0,0,3.25l0,0a2.36,2.36,0,0,0,1.65.68,2.4,2.4,0,0,0,1.64-.68l.81-.81a8.35,8.35,0,0,0,1.8.75V94.2a2.33,2.33,0,0,0,4.66,0V93.08a10.07,10.07,0,0,0,1.8-.75l.81.81a2.32,2.32,0,1,0,3.28-3.29h0l-.8-.81a9.11,9.11,0,0,0,.74-1.83h1.15a2.33,2.33,0,1,0,0-4.65h0Zm-9.31,6.21a3.88,3.88,0,1,1,3.88-3.88v.06a3.88,3.88,0,0,1-3.88,3.82Z"/></g></svg>