<svg id="Layer_1" data-name="Layer 1" xmlns="http://www.w3.org/2000/svg" width="133.68" height="168.02" viewBox="0 0 133.68 168.02"><defs><style>.cls-1{fill:#33aaad;}.cls-2{fill:#fff;}</style></defs><g id="Mask_Group_5" data-name="Mask Group 5"><g id="Group_21" data-name="Group 21"><g id="Group_20" data-name="Group 20"><g id="Path_21" data-name="Path 21"><path class="cls-1" d="M123.35,166h-113c-4,0-8.33-4.28-8.33-8.32V10.83C2,6.79,6.79,2,10.83,2H91.64l.58.56,38.85,37.66.61.58V157.7C131.68,161.74,127.4,166,123.35,166Z"/><path class="cls-2" d="M10.83,4C7.9,4,4,7.9,4,10.83V157.7c0,2.93,3.39,6.32,6.33,6.32h113c2.93,0,6.33-3.39,6.33-6.32v-116L90.83,4h-80m0-4h80a4,4,0,0,1,2.78,1.13l38.85,37.65a4,4,0,0,1,1.22,2.87v116A11.14,11.14,0,0,1,123.35,168h-113a10.32,10.32,0,0,1-7.1-3.23A10.34,10.34,0,0,1,0,157.7V10.83A10.8,10.8,0,0,1,3.49,3.49,10.8,10.8,0,0,1,10.83,0Z"/></g><path id="Path_22" data-name="Path 22" class="cls-2" d="M87.89,7.82H14.18A6.08,6.08,0,0,0,8.1,13.9h0V154a6.08,6.08,0,0,0,6.08,6.08H119.4a6.08,6.08,0,0,0,6.08-6.08h0V44.25H103.85c-10.38,0-16.07-5.55-16.07-16.19C87.78,16.29,87.89,7.82,87.89,7.82Z"/></g></g></g><g id="Group_31" data-name="Group 31"><path id="Path_47" data-name="Path 47" class="cls-1" d="M61.86,76.2H75a1.63,1.63,0,0,0,1.64-1.64V61.49A1.66,1.66,0,0,0,75,59.8H61.86a1.66,1.66,0,0,0-1.64,1.64V74.56A1.63,1.63,0,0,0,61.86,76.2ZM63.5,63.08h9.83v9.84H63.5Z"/><path id="Path_48" data-name="Path 48" class="cls-1" d="M89.25,95.26a1.5,1.5,0,0,0-.48-.3h-.68a1.35,1.35,0,0,0-.52.11h0a3.08,3.08,0,0,0-.48.32h0l-4.37,4.38A1.63,1.63,0,0,0,85,102.08l1.58-1.55V103a7.11,7.11,0,0,1-7.15,7.07h-22a1.64,1.64,0,1,0-.08,3.28H79.35A10.39,10.39,0,0,0,89.73,103V100.4L91.3,102a1.62,1.62,0,0,0,2.29,0h0l0,0a1.65,1.65,0,0,0,0-2.31Z"/><path id="Path_49" data-name="Path 49" class="cls-1" d="M56.94,68.05a1.66,1.66,0,0,0-1.64-1.69H53.11A10.41,10.41,0,0,0,42.73,76.79h0v17.9l-1.58-1.57a1.64,1.64,0,0,0-2.31,2.32l4.37,4.37a1.49,1.49,0,0,0,.55.37,1.71,1.71,0,0,0,1.22,0h0a2.27,2.27,0,0,0,.48-.33h0l4.37-4.37a1.64,1.64,0,0,0-2.32-2.32l-1.57,1.58V76.79A7.13,7.13,0,0,1,53,69.64H55.3A1.64,1.64,0,0,0,56.94,68.05Z"/><path id="Path_50" data-name="Path 50" class="cls-1" d="M94.65,59.8H81.53a1.66,1.66,0,0,0-1.64,1.64V74.56a1.64,1.64,0,0,0,1.64,1.64H94.65a1.64,1.64,0,0,0,1.64-1.64V61.49a1.67,1.67,0,0,0-1.64-1.69ZM93,72.92H83.17V63.08H93Z"/><rect id="Rectangle_23" data-name="Rectangle 23" class="cls-1" x="60.22" y="79.48" width="16.4" height="16.4" rx="0.75"/><rect id="Rectangle_24" data-name="Rectangle 24" class="cls-1" x="36.17" y="103.53" width="16.4" height="16.4" rx="0.75"/></g></svg>